<svg width="16.488556" height="19.250000" viewBox="0 0 16.4886 19.25" fill="none" xmlns="http://www.w3.org/2000/svg" xmlns:xlink="http://www.w3.org/1999/xlink">
    <desc>
        Created with Pixso.
    </desc>
    <defs/>
    <path id="path" d="M15.91 0L2.87 0C2.11 0 1.38 0.29 0.84 0.82C0.3 1.36 0 2.08 0 2.83L0 18.68C0 18.83 0.06 18.97 0.16 19.08C0.27 19.19 0.42 19.25 0.57 19.25L14.37 19.25C14.53 19.25 14.67 19.19 14.78 19.08C14.89 18.97 14.95 18.83 14.95 18.68C14.95 18.53 14.89 18.38 14.78 18.28C14.67 18.17 14.53 18.11 14.37 18.11L1.15 18.11L1.15 17.92C1.15 17.47 1.33 17.04 1.65 16.72C1.97 16.4 2.41 16.23 2.87 16.23L15.91 16.23C16.06 16.23 16.21 16.17 16.31 16.06C16.42 15.95 16.48 15.81 16.48 15.66L16.48 0.56C16.48 0.41 16.42 0.27 16.31 0.16C16.21 0.05 16.06 0 15.91 0ZM15.33 15.09L2.87 15.09C2.25 15.09 1.64 15.29 1.15 15.66L1.15 2.83C1.15 2.38 1.33 1.94 1.65 1.62C1.97 1.31 2.41 1.13 2.87 1.13L15.33 1.13L15.33 15.09Z" fill="#3C3C43" fill-opacity="0.600000" fill-rule="nonzero"/>
</svg>
